<?xml version="1.0" encoding="UTF-8"?>
<svg version="1.1" xmlns="http://www.w3.org/2000/svg" width="122" height="53">
<path d="M0 0 C40.26 0 80.52 0 122 0 C122 17.49 122 34.98 122 53 C81.74 53 41.48 53 0 53 C0 35.51 0 18.02 0 0 Z " fill="#121019" transform="translate(0,0)"/>
<path d="M0 0 C2.31 0 4.62 0 7 0 C7.33 1.98 7.66 3.96 8 6 C8.66 6 9.32 6 10 6 C10.33 4.02 10.66 2.04 11 0 C14.06303578 -0.08115993 17.12390815 -0.14057409 20.1875 -0.1875 C21.48397461 -0.22520508 21.48397461 -0.22520508 22.80664062 -0.26367188 C27.72579386 -0.32021387 31.00304609 -0.2053242 35 3 C37 5 37 5 37.4375 8.75 C37.33987512 13.62236883 35.41756711 15.66380354 32 19 C29.23547967 20.38226016 26.9538637 20.09525387 23.875 20.0625 C20.966875 20.0315625 20.966875 20.0315625 18 20 C17.67 14.06 17.34 8.12 17 2 C13.9371684 8.22446422 12.43938543 13.07967951 12 20 C9.69 20 7.38 20 5 20 C4.96132813 19.05640625 4.96132813 19.05640625 4.921875 18.09375 C4.55362732 12.5365578 3.62620425 8.43269635 0.83984375 3.59375 C0 2 0 2 0 0 Z " fill="#B7BBC4" transform="translate(40,15)"/>
<path d="M0 0 C2.31 0 4.62 0 7 0 C7.33 1.98 7.66 3.96 8 6 C8.66 6 9.32 6 10 6 C10.33 4.02 10.66 2.04 11 0 C12.98 0 14.96 0 17 0 C15.15962441 5.65258216 15.15962441 5.65258216 13.9375 8.3125 C12.60393995 12.13537214 12.33269967 15.98133816 12 20 C9.69 20 7.38 20 5 20 C4.96132813 19.05640625 4.96132813 19.05640625 4.921875 18.09375 C4.55362732 12.5365578 3.62620425 8.43269635 0.83984375 3.59375 C0 2 0 2 0 0 Z " fill="#E1E1E4" transform="translate(40,15)"/>
<path d="M0 0 C1.32 0.33 2.64 0.66 4 1 C-0.455 11.395 -0.455 11.395 -5 22 C-6.32 21.67 -7.64 21.34 -9 21 C-6.03 14.07 -3.06 7.14 0 0 Z " fill="#AC6DE3" transform="translate(92,14)"/>
<path d="M0 0 C3.53372712 1.96318174 6.24479785 4.04070881 9 7 C7.4169423 11.2742558 4.49431596 13.26531794 1 16 C0.34 15.67 -0.32 15.34 -1 15 C0.04874998 12.37812506 0.64931313 11.20628639 3.125 9.75 C3.74375 9.5025 4.3625 9.255 5 9 C5 8.34 5 7.68 5 7 C4.38125 6.7525 3.7625 6.505 3.125 6.25 C0.64931313 4.79371361 0.04874998 3.62187494 -1 1 C-0.67 0.67 -0.34 0.34 0 0 Z " fill="#B06FE7" transform="translate(101,17)"/>
<path d="M0 0 C0.99 0.33 1.98 0.66 3 1 C1.63016497 4.16115776 1.0109362 4.9927092 -2 7 C-0.86695008 10.39914975 0.12518475 11.05254451 3 13 C2.67 13.99 2.34 14.98 2 16 C-1.95677402 14.32598022 -4.84464213 11.86850715 -8 9 C-8 7 -8 7 -6.35546875 5.23828125 C-5.64003906 4.60277344 -4.92460937 3.96726562 -4.1875 3.3125 C-3.47980469 2.66925781 -2.77210937 2.02601562 -2.04296875 1.36328125 C-1.36878906 0.91339844 -0.69460937 0.46351562 0 0 Z " fill="#AF6EE7" transform="translate(29,17)"/>
<path d="M0 0 C2.97 0.495 2.97 0.495 6 1 C6.6875 3.8125 6.6875 3.8125 7 7 C5.8125 8.875 5.8125 8.875 4 10 C2.68 10 1.36 10 0 10 C0 6.7 0 3.4 0 0 Z " fill="#25252D" transform="translate(64,20)"/>
<path d="M0 0 C1.125 3.75 1.125 3.75 0 6 C-1.32 5.67 -2.64 5.34 -4 5 C-2.68 3.35 -1.36 1.7 0 0 Z " fill="#B270EA" transform="translate(87,30)"/>
</svg>
